<?xml version="1.0" encoding="UTF-8"?>
<svg id="TEXTOS" xmlns="http://www.w3.org/2000/svg" version="1.1" viewBox="0 0 1259.8 708.6">
  <!-- Generator: Adobe Illustrator 30.6.0, SVG Export Plug-In . SVG Version: 2.1.4 Build 109)  -->
  <defs>
    <style>
      .st0 {
        fill: #f4e6c8;
      }
    </style>
  </defs>
  <path d="M1177.5,532.2h0c3.6-9.9,3.9-20.8.9-31.4l-.3-1.2c-5.4-18.7-18-28.8-25.5-34.9-3.9-3.1-6.3-5-8.7-8.5,0,0-72.4-104.4-103.7-149.6,5.9-3.3,11.1-7.7,15.3-13.3,9.3-12.3,12.1-28.1,7.8-43.2l-.3-.9c-4.2-14.6-13.2-23.5-19-28.6l-6.4-22.3,14.3-54.6c11.7-15.4,15.2-31.8,10.4-48.8l-.3-.9c-6.5-22.6-26.9-37.8-50.9-37.8h-37.9c-7.8,0-15.3,1.7-22,4.8-6.8-3.1-14.4-4.8-22.4-4.8h-71.3c-16.2,0-30.9,7.2-40.3,19.6-5.4,7.2-8.6,15.6-9.5,24.3-5.3-7.7-8.7-12.5-8.7-12.5-18.3-26-41.6-31.4-57.9-31.4h-34.6c-8.8,0-17.2,2.1-24.5,6-7.8-3.9-16.6-6-26.3-6h-121.1c-5.2,0-9.8.6-13.9,1.7-4.3-1.1-8.8-1.7-13.4-1.7h-33c-14.5,0-27.9,5.8-37.2,15.9-8-6.8-22-15.9-42-15.9h-39.7c-4.9,0-9.7.7-14.2,1.9-4.6-1.2-9.4-1.9-14.3-1.9h-56.6c-11.5,0-22.3,3.6-30.9,10.2-17.9-6.7-38.2-10.2-60.4-10.2h-62.2c-16.2,0-30.9,7.2-40.3,19.6-.8,1-1.5,2.1-2.1,3.1-10.3,15-21.6,31.9-27.2,42.7h0c-5.7,11-7,23.9-3.5,36.4l.2.9c4,13.9,12.3,22.6,17.5,27.6l27.3,95.2c-2.4,7.6-4.2,18.6-.6,31.4l.3.9c6.2,21.7,25.4,36.6,48.1,37.7-15.5,30.4-17.9,67.9-6.5,107.5,11,38.5,35.6,74.9,69.3,102.3,36.2,29.6,80,45.8,123.2,45.8s50.9-7,67.1-15.6c9.7,7.9,22.1,12.4,35.5,12.4h51.5c13.3,0,25.5-4.5,34.8-12.7,9.7,8,22.3,12.7,35.9,12.7h91.9c4.1,0,8.1-.4,12-1.3,3.9.8,7.9,1.3,12,1.3h43.9c16.8,0,32-7.3,41.7-20.1,4-5.3,6.8-11.3,8.4-17.6l14.8,14.1c7.4,7.1,24.7,23.6,52.8,23.6h20.5c8.2,0,15.9-1.4,22.9-4.1,6.6,2.6,13.8,4.1,21.3,4.1h51.5c13.3,0,25.5-4.5,34.8-12.7,9.7,8,22.3,12.7,35.9,12.7h91.9c15,0,28.7-5.8,38.3-16.1h0c.1-.1.2-.3.4-.4.6-.6,1.1-1.3,1.7-1.9,11.8-13.8,29.9-39,33.4-53.7Z"/>
  <g>
    <path class="st0" d="M157,262.7l-.3-.9c-2.1-7.2,6.5-10.8,3.2-22.2l-31.5-109.9c-3.3-11.5-13.9-15-15.9-22.2l-.3-.9c-.9-3,.9-4.9,4.4-4.9h62.2c43.2,0,79.5,16.4,90.8,55.9,10,34.8-9.9,58.4-49.9,58.4h-18l6.8,23.6c3.3,11.5,15,15,17.1,22.2l.3.9c.9,3-.9,4.9-4.4,4.9h-57.3c-3.5,0-6.4-1.9-7.2-4.9ZM214.7,197.9c11.9,0,12.4-14.7,8.2-29.2-8.5-29.7-27.6-49.1-38.8-49.1h-.7c-5.8,0-7.8,4.4-5.6,12.2l15.5,54c2.2,7.7,6.5,12.2,14.9,12.2h6.5Z"/>
    <path class="st0" d="M310.3,261.7c-2.1-7.2,6.5-10.8,3.2-22.2l-31.5-109.9c-3.3-11.5-13.9-15-15.9-22.2l-.3-.9c-.9-3,.9-4.9,4.4-4.9h56.6c3.5,0,6.4,1.9,7.2,4.9l.3.9c2.1,7.2-7.7,10.8-4.4,22.2l31.5,109.9c3.3,11.5,15,15,17.1,22.2l.3.9c.9,3-.9,4.9-4.4,4.9h-56.6c-3.5,0-6.4-1.9-7.2-4.9l-.3-.9Z"/>
    <path class="st0" d="M514.6,106.5l.3.9c2.1,7.2-7.7,10.8-4.4,22.2l36,125.8c2.2,7.7-1,12.2-8.7,12.2h-15.2c-6.3,0-10.8-3.3-15.9-8.2l-108.7-103.8,24,83.9c3.3,11.5,15.5,15,17.6,22.2l.3.9c.9,3-.9,4.9-4.4,4.9h-32.5c-3.5,0-6.4-1.9-7.2-4.9l-.3-.9c-2.1-7.2,6.5-10.8,3.2-22.2l-31.5-109.9c-3.3-11.5-13.9-15-15.9-22.2l-.3-.9c-.9-3,.9-4.9,4.4-4.9h39.7c6.3,0,10.4,2.8,15.9,8.2l98.3,97.7-22.3-77.8c-3.3-11.5-14.8-15-16.9-22.2l-.3-.9c-.9-3,.9-4.9,4.4-4.9h33c3.5,0,6.4,1.9,7.2,4.9Z"/>
    <path class="st0" d="M607.2,262.7l-.3-.9c-2.1-7.2,7.2-10.8,3.9-22.2l-33.9-118.3h-7c-16.8,0-11.6,29-23.7,29h-4.4c-4.4,0-8-2.8-8.6-7.2l-5-33.7c-.9-5.6.8-7.7,6.4-7.7h121.1c5.6,0,8.5,2.1,10.9,7.7l14.3,33.7c2,4.4,0,7.2-4.5,7.2h-4.4c-12.2,0-23.5-29-40.3-29h-7l33.9,118.3c3.3,11.5,14.8,15,16.9,22.2l.3.9c.9,3-.9,4.9-4.4,4.9h-57c-3.5,0-6.1-1.9-7-4.9Z"/>
    <path class="st0" d="M869.7,261.7l.3.9c.9,3-.9,4.9-4.4,4.9h-68c-3.5,0-6.4-1.9-7.2-4.9l-.3-.9c-2.1-7.2,11.6-10.8,4.4-22.2l-6.8-10.8h-54.7l-.7,10.8c-.7,11.5,15,15,17.1,22.2l.3.9c.9,3-.9,4.9-4.4,4.9h-38.1c-3.5,0-6.4-1.9-7.2-4.9l-.3-.9c-2.1-7.2,6.6-8.6,7.9-22.2l10.8-107.8c.9-9.8-14.1-18.2-15.8-24.3l-.3-.9c-.9-3,.9-4.9,4.4-4.9h34.6c8.6,0,14.9,3.7,20.8,12.2l87.2,125.8c9.1,13.1,18.5,15,20.6,22.2ZM775.4,209.1l-37-59.1-4.1,59.1h41.1Z"/>
    <path class="st0" d="M1018.3,106.5l.3.9c2.1,7.2-6.6,8.9-10,22.2l-18.1,69.2,11.6,40.7c3.3,11.5,15,15,17.1,22.2l.3.9c.9,3-.9,4.9-4.4,4.9h-57.3c-3.5,0-6.4-1.9-7.2-4.9l-.3-.9c-2.1-7.2,6.5-10.8,3.2-22.2l-10.3-36-66.7-73.9c-11.3-12.4-21.1-15-23.2-22.2l-.3-.9c-.9-3,.9-4.9,4.4-4.9h71.3c3.5,0,6.4,1.9,7.2,4.9l.3.9c2.1,7.2-13.3,11.5-4.4,22.2l41.5,50.3,12.5-50.3c2.8-11.5-14.8-15-16.9-22.2l-.3-.9c-.9-3,.9-4.9,4.4-4.9h37.9c3.5,0,6.4,1.9,7.2,4.9Z"/>
    <g>
      <path class="st0" d="M198.6,407.9c-20.8-72.6,22-114.9,73.8-114.9s101.2,23.7,111.1,58.4c5,17.4-3.1,28.7-20.2,28.7-45.2,0-69.6-62.2-99.6-62.2s-22.7,19.9-15,47.1c17.6,61.6,62.6,114,100.2,114s6.9-.3,9.2-.9l-10.6-36.9c-4.4-15.5-22.5-20.2-25.3-30l-.4-1.3c-1.2-4.1,2.2-6.6,6.9-6.6l74.9.3c4.7,0,8.6,2.5,9.8,6.6l.4,1.3c2.8,9.8-10.4,14.5-5.9,30l9.5,33.2c2.8,9.8,2.2,16.4-7.1,25.9-10.3,10.4-30.4,22.7-63,22.7-70.4,0-132.1-56.5-148.9-115.3Z"/>
      <path class="st0" d="M669.9,512.1l.4,1.3c1.2,4.1-1.3,6.6-6,6.6h-91.9c-4.7,0-8.6-2.5-9.8-6.6l-.4-1.3c-2.8-9.8,15.7-14.5,5.9-30l-9.2-14.5h-73.9l-.9,14.5c-.9,15.5,20.3,20.2,23.1,30l.4,1.3c1.2,4.1-1.3,6.6-6,6.6h-51.5c-4.7,0-8.6-2.5-9.8-6.6l-.4-1.3c-2.8-9.8,9-11.7,10.7-30l14.5-145.6c1.3-13.3-19.1-24.6-21.4-32.8l-.4-1.3c-1.2-4.1,1.3-6.6,6-6.6h46.7c11.7,0,20.1,5.1,28.1,16.4l117.8,169.9c12.3,17.7,25,20.2,27.9,30ZM542.5,441l-50-79.9-5.5,79.9h55.6Z"/>
      <path class="st0" d="M839.1,302.4l.4,1.3c2.8,9.8-10.4,14.5-5.9,30l48.6,169.9c3,10.4-1.3,16.4-11.7,16.4h-20.5c-8.5,0-14.5-4.4-21.5-11.1l-146.9-140.2,32.5,113.4c4.4,15.5,20.9,20.2,23.7,30l.4,1.3c1.2,4.1-1.3,6.6-6,6.6h-43.9c-4.7,0-8.6-2.5-9.8-6.6l-.4-1.3c-2.8-9.8,8.8-14.5,4.4-30l-42.5-148.4c-4.4-15.5-18.7-20.2-21.5-30l-.4-1.3c-1.2-4.1,1.3-6.6,6-6.6h53.7c8.5,0,14,3.8,21.5,11.1l132.8,132-30.1-105.2c-4.4-15.5-20-20.2-22.8-30l-.4-1.3c-1.2-4.1,1.3-6.6,6-6.6h44.5c4.7,0,8.6,2.5,9.8,6.6Z"/>
      <path class="st0" d="M1134.4,512.1l.4,1.3c1.2,4.1-1.3,6.6-6,6.6h-91.9c-4.7,0-8.6-2.5-9.8-6.6l-.4-1.3c-2.8-9.8,15.7-14.5,5.9-30l-9.2-14.5h-73.9l-.9,14.5c-.9,15.5,20.3,20.2,23.1,30l.4,1.3c1.2,4.1-1.3,6.6-6,6.6h-51.5c-4.7,0-8.6-2.5-9.8-6.6l-.4-1.3c-2.8-9.8,9-11.7,10.7-30l14.5-145.6c1.3-13.3-19.1-24.6-21.4-32.8l-.4-1.3c-1.2-4.1,1.3-6.6,6-6.6h46.7c11.7,0,20.1,5.1,28.1,16.4l117.8,169.9c12.3,17.7,25,20.2,27.9,30ZM1007,441l-50-79.9-5.5,79.9h55.6Z"/>
    </g>
  </g>
</svg>