<?xml version="1.0" encoding="UTF-8"?>
<svg id="_x33__ELEMENTOS" xmlns="http://www.w3.org/2000/svg" version="1.1" viewBox="0 0 582.7 582.7">
  <!-- Generator: Adobe Illustrator 30.6.0, SVG Export Plug-In . SVG Version: 2.1.4 Build 109)  -->
  <defs>
    <style>
      .st0 {
        fill: #3a2418;
      }
    </style>
  </defs>
  <path class="st0" d="M482.9,250.6c-31.8-104-139.4-165.6-245.6-138.8l9.6-20.2c6-12.5-.3-26.4-11.8-32.4-11.3-5.9-27.5-3.2-33.7,9.6l-39.7,82.5c-5.6,11.7-1.6,27.2,10.6,33.1l82.7,39.6c12.7,6.1,27-.1,33-11.9,5.9-11.6,2.4-27.3-10.7-33.9l-31.6-15.8c91.7-25.5,182.4,36.8,193.7,129.3,11.4,93.4-62.8,175.1-158.1,172.1-52.4-1.7-100.7-30.2-127.7-77-4.8-8.3-8.8-17.1-11.9-26.2-4.1-11.9-16.1-19.1-28.5-16.9-.2,0-.3,0-.5,0-15.2,2.8-24.6,18.4-19.6,33,1.5,4.4,3.2,8.7,5,13,43.8,104.3,162.4,152.3,266.3,110.1,98.1-39.9,149.5-148.1,118.5-249.5Z"/>
</svg>