<?xml version="1.0" encoding="UTF-8"?>
<svg id="_x33__ELEMENTOS" xmlns="http://www.w3.org/2000/svg" version="1.1" viewBox="0 0 582.7 582.7">
  <!-- Generator: Adobe Illustrator 30.6.0, SVG Export Plug-In . SVG Version: 2.1.4 Build 109)  -->
  <defs>
    <style>
      .st0 {
        fill: #f4e6c8;
      }
    </style>
  </defs>
  <path class="st0" d="M339.4,537.5h-189.5c-50.5,0-91.6-41.1-91.6-91.6v-189.5c0-50.5,41.1-91.6,91.6-91.6h189.5c50.5,0,91.6,41.1,91.6,91.6v189.5c0,50.5-41.1,91.6-91.6,91.6ZM149.9,211.4c-24.8,0-44.9,20.1-44.9,44.9v189.5c0,24.8,20.1,44.9,44.9,44.9h189.5c24.8,0,44.9-20.2,44.9-44.9v-189.5c0-24.8-20.1-44.9-44.9-44.9h-189.5Z"/>
  <path class="st0" d="M450.1,427.6h-42.4c-12.9,0-23.4-10.5-23.4-23.4v-148c0-24.8-20.1-44.9-44.9-44.9h-147.1c-12.9,0-23.4-10.5-23.4-23.4v-41.5c0-50.5,41.1-91.6,91.6-91.6h189.5c50.5,0,91.6,41.1,91.6,91.6v189.5c0,50.5-41.1,91.6-91.6,91.6ZM431,380.9h19.1c24.8,0,44.9-20.2,44.9-44.9v-189.5c0-24.8-20.1-44.9-44.9-44.9h-189.5c-24.8,0-44.9,20.2-44.9,44.9v18.2h123.7c50.5,0,91.6,41.1,91.6,91.6v124.6Z"/>
</svg>