<?xml version="1.0" encoding="UTF-8"?>
<svg id="_x33__ELEMENTOS" xmlns="http://www.w3.org/2000/svg" version="1.1" viewBox="0 0 582.7 582.7">
  <!-- Generator: Adobe Illustrator 30.6.0, SVG Export Plug-In . SVG Version: 2.1.4 Build 109)  -->
  <defs>
    <style>
      .st0 {
        fill: #f4e6c8;
      }
    </style>
  </defs>
  <path class="st0" d="M241.5,350.9c-1.9-3.8-4.6-7.2-8-8.9l-154.4-77.6c-20.5-10.3-31.2-33.3-28.7-55.7,2.3-20.9,17.1-40.9,38.7-47.2L457.7,52.8c20.5-6.1,41.8-2.2,57.3,12.6,14.5,13.9,21.6,35.7,15.6,56.1l-109.3,371.5c-6.6,22.5-27.1,37.5-48.9,39.4-24.3,2.2-45.7-10.8-56.4-32.3l-74.5-149.1ZM278.8,342.3l71.2,142.4c4,8,12.1,11.5,20.6,10.4,7.7-1,13.3-6.6,15.8-14.9l108.8-370.2c1.9-6.5-1.7-13.4-5.8-17.4-4-3.9-10.6-7.1-16.9-5.3L100.6,196.7c-7.7,2.3-12.3,9-13.2,15.9-1,7.2,2.1,15.6,9.2,19.2l159.6,80.5,113.4-107.3c15.2-18.2,44.9,4.8,29.2,23.2,0,0-119.9,114.1-119.9,114.1Z"/>
</svg>