<?xml version="1.0" encoding="UTF-8"?>
<svg id="_x33__ELEMENTOS" xmlns="http://www.w3.org/2000/svg" version="1.1" viewBox="0 0 582.7 582.7">
  <!-- Generator: Adobe Illustrator 30.6.0, SVG Export Plug-In . SVG Version: 2.1.4 Build 109)  -->
  <defs>
    <style>
      .st0 {
        fill: #3a2418;
      }
    </style>
  </defs>
  <path class="st0" d="M151,532.8c-23.9,0-43.2-19.4-43.2-43.2v-130.5c0-23.9,19.4-43.2,43.2-43.2s43.2,19.4,43.2,43.2v130.5c0,23.9-19.4,43.2-43.2,43.2Z"/>
  <path class="st0" d="M287.3,532.8c-23.9,0-43.2-19.4-43.2-43.2V93.2c0-23.9,19.4-43.2,43.2-43.2s43.2,19.4,43.2,43.2v396.4c0,23.9-19.4,43.2-43.2,43.2Z"/>
  <path class="st0" d="M431.7,532.8c-23.9,0-43.2-19.4-43.2-43.2V223.3c0-23.9,19.4-43.2,43.2-43.2s43.2,19.4,43.2,43.2v266.3c0,23.9-19.4,43.2-43.2,43.2Z"/>
</svg>