<?xml version="1.0" encoding="UTF-8"?>
<svg id="_x33__ELEMENTOS" xmlns="http://www.w3.org/2000/svg" version="1.1" viewBox="0 0 582.7 582.7">
  <!-- Generator: Adobe Illustrator 30.6.0, SVG Export Plug-In . SVG Version: 2.1.4 Build 109)  -->
  <defs>
    <style>
      .st0 {
        fill: #3a2418;
      }
    </style>
  </defs>
  <path class="st0" d="M497.3,287.7c-16.4-2-30.6,9.6-32.7,26.3-4.2,34.7-19.3,67.5-43.5,94.6l-12.5,12.4c-36.3,32.9-85,49.1-133.8,44.6-46.2-4.3-88.9-27-118.4-62.6h31.3c8,0,15.9-4,21.7-10.8,7.2-8.6,8.8-20.3,4-30.5-3.8-8-12.9-16.6-24.2-16.6h0l-96.2.2c-18.3,0-34.4,16.3-34.4,34.9v95.8c0,12.2,9.6,23.6,22.3,26.5,8.6,2,17.6-.1,24.6-5.6,6.7-5.3,10.5-13,10.6-21.3l.3-30.1c42,47.4,101.5,76,164.9,78.7,3.4.2,6.9.2,10.3.2,56.9,0,111-20.4,153.6-58l21-21c30.4-34.1,49.9-76.9,56.4-123.7,1.2-8.5-.9-16.7-5.9-23.2-4.7-6.1-11.5-9.9-19.2-10.8Z"/>
  <path class="st0" d="M495.6,79.4c-7.7,0-15.1,3-20.7,8.4-5.3,5.1-8.2,11.8-8.3,18.8l-.4,30.7c-50.9-57.8-126.2-86.6-203.4-77.3-106.1,12.8-189.4,95.9-202.7,201.9-2.1,16.6,8.6,30.8,24.7,33.1,1.4.2,2.7.3,4.1.3,13.9,0,26.3-10.3,28.6-24.6,6.2-52,35.2-98.3,79.7-126.8,74.6-47.9,173.7-31.8,229.1,36l-35.1.5h-.3c-16.2,1.6-25.1,16.6-24.3,30.1.8,12.9,11.6,26.8,26.6,26.8h95.6c0,.1,0,.1,0,.1,9.1,0,18.2-4,25-10.9,6.7-6.9,10.5-16,10.5-25.2v-93.6c0-15.4-12.8-28.1-28.6-28.4Z"/>
</svg>